<mxfile host="Electron" modified="2024-06-16T16:32:22.536Z" agent="Mozilla/5.0 (Macintosh; Intel Mac OS X 10_15_7) AppleWebKit/537.36 (KHTML, like Gecko) draw.io/24.4.8 Chrome/124.0.6367.207 Electron/30.0.6 Safari/537.36" etag="h5wMGaxWLlGkNETxS8MF" version="24.4.8" type="device">
  <diagram name="Page-1" id="miedj_ksKExEGfUfEHE_">
    <mxGraphModel dx="1374" dy="589" grid="1" gridSize="10" guides="1" tooltips="1" connect="1" arrows="1" fold="1" page="1" pageScale="1" pageWidth="1100" pageHeight="850" math="0" shadow="0">
      <root>
        <mxCell id="0" />
        <mxCell id="1" parent="0" />
        <mxCell id="XFcjtgc7q1vpvtHK78ak-7" value="" style="rounded=0;whiteSpace=wrap;html=1;fillColor=#f5f5f5;fontColor=#333333;strokeColor=none;" parent="1" vertex="1">
          <mxGeometry x="40" y="140" width="470" height="40" as="geometry" />
        </mxCell>
        <mxCell id="XFcjtgc7q1vpvtHK78ak-8" value="" style="rounded=0;whiteSpace=wrap;html=1;fillColor=#f5f5f5;fontColor=#333333;strokeColor=none;" parent="1" vertex="1">
          <mxGeometry x="40" y="200" width="470" height="40" as="geometry" />
        </mxCell>
        <mxCell id="XFcjtgc7q1vpvtHK78ak-6" value="" style="rounded=0;whiteSpace=wrap;html=1;fillColor=#f5f5f5;fontColor=#333333;strokeColor=none;" parent="1" vertex="1">
          <mxGeometry x="40" y="80" width="470" height="40" as="geometry" />
        </mxCell>
        <mxCell id="XFcjtgc7q1vpvtHK78ak-9" style="edgeStyle=orthogonalEdgeStyle;rounded=0;orthogonalLoop=1;jettySize=auto;html=1;exitX=1;exitY=0.5;exitDx=0;exitDy=0;entryX=0;entryY=0.5;entryDx=0;entryDy=0;" parent="1" source="XFcjtgc7q1vpvtHK78ak-1" target="XFcjtgc7q1vpvtHK78ak-2" edge="1">
          <mxGeometry relative="1" as="geometry" />
        </mxCell>
        <mxCell id="XFcjtgc7q1vpvtHK78ak-1" value="Renderer" style="rounded=0;whiteSpace=wrap;html=1;" parent="1" vertex="1">
          <mxGeometry x="60" y="80" width="80" height="40" as="geometry" />
        </mxCell>
        <mxCell id="XFcjtgc7q1vpvtHK78ak-10" style="edgeStyle=orthogonalEdgeStyle;rounded=0;orthogonalLoop=1;jettySize=auto;html=1;exitX=1;exitY=0.5;exitDx=0;exitDy=0;entryX=0;entryY=0.5;entryDx=0;entryDy=0;" parent="1" source="XFcjtgc7q1vpvtHK78ak-2" target="XFcjtgc7q1vpvtHK78ak-3" edge="1">
          <mxGeometry relative="1" as="geometry" />
        </mxCell>
        <mxCell id="XFcjtgc7q1vpvtHK78ak-2" value="Editor" style="rounded=0;whiteSpace=wrap;html=1;" parent="1" vertex="1">
          <mxGeometry x="170" y="80" width="80" height="40" as="geometry" />
        </mxCell>
        <mxCell id="XFcjtgc7q1vpvtHK78ak-3" value="UI" style="rounded=0;whiteSpace=wrap;html=1;" parent="1" vertex="1">
          <mxGeometry x="280" y="80" width="80" height="40" as="geometry" />
        </mxCell>
        <mxCell id="XFcjtgc7q1vpvtHK78ak-4" value="Transfer" style="rounded=0;whiteSpace=wrap;html=1;" parent="1" vertex="1">
          <mxGeometry x="60" y="140" width="80" height="40" as="geometry" />
        </mxCell>
        <mxCell id="XFcjtgc7q1vpvtHK78ak-5" value="Editor Previews" style="rounded=0;whiteSpace=wrap;html=1;" parent="1" vertex="1">
          <mxGeometry x="60" y="200" width="80" height="40" as="geometry" />
        </mxCell>
        <mxCell id="XFcjtgc7q1vpvtHK78ak-12" value="Последовательное исполнение" style="text;html=1;align=center;verticalAlign=middle;whiteSpace=wrap;rounded=0;" parent="1" vertex="1">
          <mxGeometry x="380" y="80" width="130" height="40" as="geometry" />
        </mxCell>
        <mxCell id="XFcjtgc7q1vpvtHK78ak-13" value="Асинхронное исполнение" style="text;html=1;align=center;verticalAlign=middle;whiteSpace=wrap;rounded=0;" parent="1" vertex="1">
          <mxGeometry x="380" y="140" width="130" height="40" as="geometry" />
        </mxCell>
        <mxCell id="XFcjtgc7q1vpvtHK78ak-14" value="Асинхронное исполнение" style="text;html=1;align=center;verticalAlign=middle;whiteSpace=wrap;rounded=0;" parent="1" vertex="1">
          <mxGeometry x="380" y="200" width="130" height="40" as="geometry" />
        </mxCell>
      </root>
    </mxGraphModel>
  </diagram>
</mxfile>
